#!OML:ASF E:\emotionWalksFemale\Project 1\Capture day 1\Session 1\Female1.ASF
:FULLY-SPECIFIED
:DEGREES
433
root 8.46739 15.4097 35.6614 183.51 -3.20289 -177.47
lowerback 8.51686 -0.539205 0.275486
upperback 0.334505 -0.689465 1.53727
thorax -4.4149 -0.361047 1.52709
lowerneck -4.14819 -1.71241 -7.41322
upperneck 30.39 -9.8716 12.7554
head 11.4922 -5.52533 4.65425
rclavicle -3.66509e-015 -3.37934e-015
rhumerus -35.8925 19.67 -94.7936
rradius 33.0126
rwrist 14.8138
rhand -6.4189 -53.1719
rfingers 7.12502
rthumb 19.4296 -82.2212
lclavicle -3.66509e-015 -3.37934e-015
lhumerus -36.495 -3.51895 90.0636
lradius 41.5062
lwrist -8.92908
lhand -6.03853 -32.9467
lfingers 7.12502
lthumb 19.7953 -3.93471
rfemur -10.8286 17.9386 28.3798
rtibia 19.2532
rfoot -10.6467 -26.683
rtoes 18.5864
lfemur -8.84266 -4.10372 -17.1054
ltibia 56.9507
lfoot 8.07852 -6.21549
ltoes -9.23713
434
root 8.47934 15.4054 35.5998 183.626 -3.219 -177.091
lowerback 8.51255 -0.439989 0.864788
upperback 0.419999 -0.509177 1.52739
thorax -4.33273 -0.287071 1.16248
lowerneck -4.19442 -1.842 -7.27796
upperneck 30.2349 -10.0596 12.8678
head 11.4675 -5.5699 4.64661
rclavicle -4.34841e-015 1.39149e-015
rhumerus -35.5541 19.2206 -94.6468
rradius 33.0312
rwrist 14.9678
rhand -6.52666 -52.7214
rfingers 7.12502
rthumb 19.326 -81.7811
lclavicle -4.34841e-015 1.39149e-015
lhumerus -36.0439 -3.50704 90.0529
lradius 41.2404
lwrist -9.34551
lhand -7.505 -33.3845
lfingers 7.12502
lthumb 18.3851 -4.2333
rfemur -10.6206 17.7509 28.8859
rtibia 18.9836
rfoot -10.6084 -26.4503
rtoes 18.9984
lfemur -10.5234 -3.99735 -16.623
ltibia 59.107
lfoot 8.72893 -6.18183
ltoes -7.14374
435
root 8.49636 15.4013 35.5384 183.498 -3.40261 -176.827
lowerback 8.84902 -0.233724 1.36863
upperback 0.492962 -0.191267 1.34571
thorax -4.45152 -0.143199 0.653981
lowerneck -4.14387 -2.09723 -6.68901
upperneck 30.0996 -10.5577 12.9603
head 11.4527 -5.72342 4.51123
rclavicle 2.13228e-015 6.22444e-015
rhumerus -35.1482 18.093 -94.5661
rradius 32.8113
rwrist 15.0027
rhand -6.62667 -52.7934
rfingers 7.12502
rthumb 19.2298 -81.8627
lclavicle 2.13228e-015 6.22444e-015
lhumerus -35.6772 -4.46499 90.042
lradius 41.1521
lwrist -9.08749
lhand -7.70655 -33.0575
lfingers 7.12502
lthumb 18.1912 -3.88815
rfemur -10.2372 17.5392 29.3907
rtibia 18.9933
rfoot -10.902 -26.5126
rtoes 19.361
lfemur -11.8675 -4.04686 -16.2618
ltibia 61.0572
lfoot 8.95806 -5.9362
ltoes -6.64839
436
root 8.5141 15.3922 35.4759 183.357 -3.77328 -176.512
lowerback 9.08863 -0.462455 1.5057
upperback 0.570256 -0.479995 1.69216
thorax -4.503 -0.29336 0.976025
lowerneck -4.16561 -1.94656 -7.20358
upperneck 30.1773 -10.276 13.023
head 11.4753 -5.64275 4.66606
rclavicle 1.68967e-014 -2.03754e-014
rhumerus -34.9322 19.0981 -94.5405
rradius 32.6533
rwrist 14.5539
rhand -6.75102 -53.2573
rfingers 7.12502
rthumb 19.1103 -82.3385
lclavicle 1.68967e-014 -2.03754e-014
lhumerus -35.607 -3.53677 90.127
lradius 41.2553
lwrist -9.17766
lhand -7.33572 -32.9243
lfingers 7.12502
lthumb 18.5479 -3.78855
rfemur -9.91801 17.4554 29.9725
rtibia 19.1798
rfoot -11.2592 -26.7849
rtoes 19.1792
lfemur -13.1951 -4.25456 -15.8152
ltibia 62.8942
lfoot 8.599 -5.6505
ltoes -7.83692
437
root 8.52806 15.3821 35.3965 183.062 -3.97154 -176.892
lowerback 9.12787 -0.378169 1.22613
upperback 0.851803 -0.415568 1.50737
thorax -4.23118 -0.259518 0.930654
lowerneck -4.18942 -2.04336 -6.9716
upperneck 30.1204 -10.4693 13.1016
head 11.4796 -5.69179 4.62872
rclavicle 9.69075e-015 -1.11319e-014
rhumerus -34.6198 18.8226 -94.4953
rradius 32.6637
rwrist 14.4869
rhand -7.12649 -53.1749
rfingers 7.12502
rthumb 18.7492 -82.2913
lclavicle 9.69075e-015 -1.11319e-014
lhumerus -35.379 -3.82151 90.097
lradius 41.3295
lwrist -9.14982
lhand -7.31117 -33.2628
lfingers 7.12502
lthumb 18.5715 -4.12927
rfemur -9.3954 17.2892 29.8598
rtibia 19.5794
rfoot -11.7619 -26.7214
rtoes 19.3296
lfemur -13.9808 -4.45998 -16.2966
ltibia 64.4021
lfoot 7.40337 -5.21745
ltoes -11.2255
438
root 8.54476 15.3729 35.3274 182.892 -4.30853 -177.312
lowerback 9.45546 -0.364525 0.835665
upperback 0.935242 -0.439683 1.37835
thorax -4.32532 -0.26617 1.02232
lowerneck -4.22225 -2.13751 -6.77652
upperneck 30.2131 -10.6209 12.9514
head 11.5262 -5.75008 4.51787
rclavicle -8.56638e-015 8.34896e-015
rhumerus -34.4818 18.5059 -94.4127
rradius 32.6998
rwrist 14.4802
rhand -7.37762 -52.8524
rfingers 7.12502
rthumb 18.5076 -81.992
lclavicle -8.56638e-015 8.34896e-015
lhumerus -35.146 -4.07035 90.1551
lradius 41.3079
lwrist -8.98029
lhand -7.33079 -33.1111
lfingers 7.12502
lthumb 18.5527 -3.97586
rfemur -9.14515 16.9292 29.6611
rtibia 20.1026
rfoot -12.3039 -26.649
rtoes 19.9833
lfemur -15.0516 -4.73714 -16.7668
ltibia 65.7853
lfoot 5.96268 -4.71656
ltoes -15.2125
439
root 8.55882 15.3672 35.2618 182.836 -4.50039 -177.494
lowerback 9.63213 -0.347398 0.670612
upperback 1.05956 -0.442008 1.34311
thorax -4.29343 -0.267803 1.07995
lowerneck -4.31835 -2.25785 -6.67412
upperneck 30.1544 -10.7262 12.8362
head 11.5252 -5.77834 4.43971
rclavicle -6.43565e-015 -6.4605e-015
rhumerus -34.0937 18.3389 -94.2638
rradius 32.5818
rwrist 14.6468
rhand -7.37065 -52.8409
rfingers 7.12502
rthumb 18.5143 -81.9799
lclavicle -6.43565e-015 -6.4605e-015
lhumerus -34.762 -4.00974 90.1753
lradius 41.3624
lwrist -8.75366
lhand -7.0621 -32.9078
lfingers 7.12502
lthumb 18.8111 -3.79738
rfemur -9.0464 16.689 29.6752
rtibia 20.6327
rfoot -12.7456 -26.6573
rtoes 20.4353
lfemur -16.2922 -4.85343 -16.9635
ltibia 67.0044
lfoot 4.55307 -4.14791
ltoes -17.7207
440
root 8.57258 15.3604 35.1917 182.725 -4.56974 -177.537
lowerback 9.63792 -0.395053 0.513818
upperback 1.12937 -0.524559 1.44476
thorax -4.22056 -0.308079 1.28439
lowerneck -3.90925 -2.15631 -6.92368
upperneck 30.0174 -10.5818 12.9383
head 11.3843 -5.75751 4.5502
rclavicle 1.97542e-015 5.96354e-015
rhumerus -33.9564 18.6686 -94.2205
rradius 32.497
rwrist 14.7269
rhand -7.17572 -53.0761
rfingers 7.12502
rthumb 18.7018 -82.1971
lclavicle 1.97542e-015 5.96354e-015
lhumerus -34.8394 -3.46122 90.1929
lradius 41.6328
lwrist -8.51678
lhand -6.98968 -32.9998
lfingers 7.12502
lthumb 18.8807 -3.8961
rfemur -8.80598 16.5719 29.8595
rtibia 21.0259
rfoot -13.0601 -26.6856
rtoes 20.257
lfemur -17.4282 -4.84066 -17.0243
ltibia 68.0957
lfoot 3.16998 -3.79593
ltoes -18.6053
441
root 8.58552 15.3532 35.1174 182.571 -4.58555 -177.453
lowerback 9.56769 -0.352426 0.539228
upperback 1.3399 -0.480845 1.51229
thorax -3.9626 -0.293375 1.33195
lowerneck -3.89325 -2.12524 -7.0906
upperneck 30.0079 -10.5921 13.1601
head 11.4 -5.76163 4.66475
rclavicle 2.8948e-015 1.98785e-016
rhumerus -33.4568 18.488 -94.0005
rradius 32.3053
rwrist 14.8205
rhand -7.34106 -52.8073
rfingers 7.12502
rthumb 18.5428 -81.9436
lclavicle 2.8948e-015 1.98785e-016
lhumerus -34.5889 -3.38849 90.2273
lradius 41.802
lwrist -8.12751
lhand -6.91033 -32.7916
lfingers 7.12502
lthumb 18.9571 -3.69535
rfemur -8.5194 16.4896 30.1883
rtibia 21.4408
rfoot -13.5112 -26.735
rtoes 20.2604
lfemur -18.4435 -4.79263 -16.9554
ltibia 69.093
lfoot 1.58453 -3.76476
ltoes -18.5757
442
root 8.60212 15.3442 35.0562 182.543 -4.75868 -177.385
lowerback 9.66782 -0.314891 0.62799
upperback 1.44016 -0.429981 1.50966
thorax -3.91552 -0.273129 1.27314
lowerneck -3.95405 -2.17117 -7.12098
upperneck 30.025 -10.7339 13.3525
head 11.4531 -5.80899 4.72542
rclavicle -2.13694e-015 1.47101e-014
rhumerus -33.0335 18.0828 -93.8563
rradius 32.1192
rwrist 14.9054
rhand -7.98739 -52.4959
rfingers 7.12502
rthumb 17.921 -81.6902
lclavicle -2.13694e-015 1.47101e-014
lhumerus -34.2236 -3.6505 90.2499
lradius 41.7654
lwrist -7.86433
lhand -6.90127 -32.7523
lfingers 7.12502
lthumb 18.9658 -3.65696
rfemur -8.44222 16.3036 30.4602
rtibia 21.8665
rfoot -14.045 -26.831
rtoes 20.886
lfemur -19.6896 -4.83823 -16.8745
ltibia 69.9832
lfoot -0.0226157 -3.72119
ltoes -20.6184
443
root 8.62854 15.3305 35.0196 182.646 -5.36601 -177.518
lowerback 10.2005 -0.402716 0.493951
upperback 1.29816 -0.548575 1.43267
thorax -4.35745 -0.326654 1.29243
lowerneck -3.92111 -2.24301 -6.95559
upperneck 30.0949 -10.9178 13.352
head 11.4927 -5.88198 4.67379
rclavicle -4.72114e-015 2.68359e-015
rhumerus -32.8948 18.0055 -94.0077
rradius 32.006
rwrist 14.857
rhand -8.35437 -52.8646
rfingers 7.12502
rthumb 17.5678 -82.0909
lclavicle -4.72114e-015 2.68359e-015
lhumerus -34.1933 -4.01245 90.2552
lradius 41.7712
lwrist -8.02356
lhand -7.76272 -33.1442
lfingers 7.12502
lthumb 18.1371 -3.96986
rfemur -8.59436 15.9971 30.5152
rtibia 22.345
rfoot -14.6494 -27.0827
rtoes 21.5683
lfemur -21.3551 -5.16768 -16.9297
ltibia 70.7681
lfoot -1.34604 -3.45953
ltoes -23.9348
444
root 8.63681 15.3204 34.9442 182.618 -5.30128 -177.56
lowerback 10.1408 -0.254763 0.603085
upperback 1.40936 -0.352239 1.27588
thorax -4.21331 -0.233968 1.03913
lowerneck -4.0321 -2.37379 -6.65061
upperneck 30.1456 -11.1746 13.3336
head 11.5567 -5.96012 4.57676
rclavicle -4.83916e-015 -4.47266e-016
rhumerus -32.5489 17.7366 -94.0943
rradius 31.8147
rwrist 15.137
rhand -8.18981 -53.2457
rfingers 7.12502
rthumb 17.7262 -82.4577
lclavicle -4.83916e-015 -4.47266e-016
lhumerus -34.1515 -4.47046 90.2347
lradius 42.0133
lwrist -8.11058
lhand -8.39361 -33.4082
lfingers 7.12502
lthumb 17.5301 -4.17853
rfemur -8.51053 15.9745 30.6467
rtibia 22.939
rfoot -15.1266 -27.0273
rtoes 21.5247
lfemur -22.4627 -5.01777 -17.0428
ltibia 71.3038
lfoot -2.73431 -2.94695
ltoes -24.2784
